<svg xmlns="http://www.w3.org/2000/svg" viewBox="0 0 64 64" id="repair"><path fill="#2a2f64" d="M61.93 49.93 46.32 34.31a2.674 2.674 0 0 0-3.79 0l-.66.66-2.93-2.93 9.32-9.31c3.98 1.21 8.35.15 11.3-2.8 3.06-3.05 4.1-7.51 2.71-11.62a.95.95 0 0 0-.7-.63.962.962 0 0 0-.9.25l-5.91 5.91-3.67-1.48-1.48-3.67 5.91-5.91c.23-.23.33-.58.25-.9a.95.95 0 0 0-.63-.7c-4.11-1.4-8.57-.37-11.63 2.7-2.94 2.94-3.99 7.31-2.79 11.29l-9.32 9.32-8.59-8.59-1.6-4.88a.992.992 0 0 0-.45-.54l-9.09-5.1a.955.955 0 0 0-1.16.16L7.55 8.45c-.31.31-.37.79-.15 1.16l5.1 9.09a1 1 0 0 0 .54.45l4.88 1.6 8.59 8.6L14.6 41.26c-3.98-1.2-8.36-.15-11.3 2.79C.25 47.11-.79 51.56.6 55.68c.11.32.37.55.7.63.33.08.67-.02.9-.26l5.91-5.91 3.67 1.49 1.48 3.67-5.91 5.9a.98.98 0 0 0-.25.91c.08.33.31.59.63.7 1.2.41 2.44.61 3.66.61 2.94 0 5.79-1.15 7.96-3.32 2.94-2.95 4-7.32 2.79-11.3l11.91-11.91L37 39.83l-.66.66a2.686 2.686 0 0 0 0 3.8L51.95 59.9a7.005 7.005 0 0 0 4.99 2.07c1.88 0 3.66-.73 4.99-2.07 2.76-2.75 2.76-7.23 0-9.97zM19.12 19.22a.926.926 0 0 0-.38-.23L14 17.43 9.44 9.3l1.89-1.89 8.12 4.57L21 16.71c.05.15.14.27.24.39L30 25.86l-2.12 2.12-8.76-8.76zm1.25 28.65c-.27.27-.36.67-.22 1.02 1.25 3.42.41 7.29-2.15 9.85a9.305 9.305 0 0 1-8.04 2.64l5.16-5.16a.97.97 0 0 0 .21-1.05l-1.88-4.65c-.11-.24-.29-.44-.54-.53l-4.64-1.88a.97.97 0 0 0-1.05.21l-5.16 5.16c-.47-2.93.48-5.9 2.63-8.05 2.55-2.56 6.41-3.4 9.84-2.14.36.13.76.04 1.02-.23l13.01-13c0-.01.01-.01.02-.01 0-.01 0-.02.01-.02l3.47-3.47s.01-.01.02-.01c0-.01 0-.02.01-.02L42.5 16.11c.26-.26.35-.66.22-1.02-1.25-3.42-.42-7.29 2.14-9.84a9.28 9.28 0 0 1 8.05-2.63l-5.16 5.16a.97.97 0 0 0-.21 1.05l1.88 4.64c.11.24.29.44.54.54l4.64 1.87c.37.16.78.07 1.05-.21l5.16-5.15c.46 2.92-.48 5.89-2.64 8.04-2.56 2.56-6.43 3.4-9.85 2.14a.97.97 0 0 0-1.02.23L20.37 47.87zm15.08-12.33 2.12-2.12 2.93 2.92-2.13 2.13-2.92-2.93zm25.11 23a5.09 5.09 0 0 1-3.62 1.49 5.09 5.09 0 0 1-3.62-1.49L37.71 42.92a.754.754 0 0 1 0-1.06l1.34-1.34h.01v-.01l3.49-3.49h.01l1.34-1.34a.736.736 0 0 1 1.05 0l15.61 15.61c2 2 2 5.25 0 7.25z"></path><path fill="#f16e61" d="M58.17 18.56c-2.56 2.56-6.43 3.4-9.85 2.14a.97.97 0 0 0-1.02.23L20.37 47.87c-.27.27-.36.67-.22 1.02 1.25 3.42.41 7.29-2.15 9.85a9.305 9.305 0 0 1-8.04 2.64l5.16-5.16a.97.97 0 0 0 .21-1.05l-1.88-4.65c-.11-.24-.29-.44-.54-.53l-4.64-1.88a.97.97 0 0 0-1.05.21l-5.16 5.16c-.47-2.93.48-5.9 2.63-8.05 2.55-2.56 6.41-3.4 9.84-2.14.36.13.76.04 1.02-.23l13.01-13c0-.01.01-.01.02-.01 0-.01 0-.02.01-.02l3.47-3.47s.01-.01.02-.01c0-.01 0-.02.01-.02L42.5 16.11c.26-.26.35-.66.22-1.02-1.25-3.42-.42-7.29 2.14-9.84a9.28 9.28 0 0 1 8.05-2.63l-5.16 5.16a.97.97 0 0 0-.21 1.05l1.88 4.64c.11.24.29.44.54.54l4.64 1.87c.37.16.78.07 1.05-.21l5.16-5.15c.46 2.92-.48 5.9-2.64 8.04z"></path><path fill="#e25e5a" d="M58.17 18.56c-2.56 2.56-6.43 3.4-9.85 2.14a.97.97 0 0 0-1.02.23L20.37 47.87c-.27.27-.36.67-.22 1.02 1.25 3.42.41 7.29-2.15 9.85a9.305 9.305 0 0 1-8.04 2.64l1.49-1.49a9.31 9.31 0 0 0 5.06-2.63c2.56-2.56 3.4-6.43 2.15-9.85a.947.947 0 0 1 .22-1.02l26.93-26.93a.97.97 0 0 1 1.02-.23c3.42 1.26 7.29.42 9.85-2.14a9.345 9.345 0 0 0 2.63-5.06l1.49-1.49c.47 2.9-.47 5.88-2.63 8.02z"></path><path fill="#4ebce5" d="m60.56 51.29-15.61-15.6a.742.742 0 0 0-.53-.22c-.18 0-.38.08-.52.22l-1.34 1.34h-.01l-3.49 3.49v.01h-.01l-1.34 1.34c-.29.29-.29.77 0 1.06l15.62 15.62a5.09 5.09 0 0 0 3.62 1.49c1.37 0 2.66-.53 3.62-1.49 1.99-2.01 1.99-5.26-.01-7.26zm-3.16 3.99c-.18.19-.44.28-.69.28-.24 0-.49-.09-.68-.28L44.06 43.31a.966.966 0 0 1 0-1.37c.38-.38.99-.38 1.37 0L57.4 53.91c.38.38.38.99 0 1.37z"></path><path fill="#ffdb7c" d="m40.5 36.33-2.13 2.14-2.92-2.93 2.12-2.12zM30.01 25.85l-2.12 2.12-8.76-8.76a.926.926 0 0 0-.38-.23L14 17.43 9.44 9.3l1.89-1.89 8.12 4.57L21 16.71c.05.15.14.27.24.39l8.77 8.75z"></path><path fill="#36a8d9" d="M61.09 57.91c-.16.22-.34.44-.53.63a5.09 5.09 0 0 1-3.62 1.49 5.09 5.09 0 0 1-3.62-1.49L37.71 42.92a.754.754 0 0 1 0-1.06l1.16-1.16c-.29.29-.29.77 0 1.06l15.62 15.62a5.09 5.09 0 0 0 3.62 1.49c1.08 0 2.12-.34 2.98-.96z"></path><path fill="#ebc15c" d="m39.53 37.3-1.16 1.17-2.92-2.93 1.16-1.16zM29.05 26.81l-1.16 1.16-8.76-8.76a.926.926 0 0 0-.38-.23L14 17.43 9.44 9.3l1.16-1.16 4.56 8.12 4.74 1.56c.15.05.27.13.38.23l8.77 8.76z"></path><path fill="#2a2f64" d="M57.4 55.28c-.18.19-.44.28-.69.28-.24 0-.49-.09-.68-.28L44.06 43.31a.966.966 0 0 1 0-1.37c.38-.38.99-.38 1.37 0L57.4 53.91c.38.38.38.99 0 1.37z"></path></svg>